<svg xmlns="http://www.w3.org/2000/svg" width="34" height="31" viewBox="0 0 34 31" fill="none">
  <path d="M4.48283 16.2168C3.40692 15.0903 2.68584 13.6724 2.40923 12.1394C2.13262 10.6064 2.31269 9.02597 2.92704 7.59448C3.54139 6.163 4.56293 4.94366 5.86466 4.08805C7.16639 3.23244 8.69089 2.7783 10.2486 2.78209C12.9359 2.78857 15.3055 5.7537 16.7381 7.79912C18.1806 5.76063 20.5644 2.80696 23.2517 2.81344C24.8343 2.81715 26.3798 3.29338 27.6901 4.18109C29.0004 5.06879 30.0157 6.32754 30.606 7.796C31.1963 9.26446 31.3346 10.8757 31.0033 12.4233C30.6719 13.9709 29.886 15.3843 28.7463 16.4824L17.7255 27.7444C17.5905 27.8823 17.4293 27.9917 17.2514 28.0662C17.0735 28.1408 16.8825 28.179 16.6896 28.1785C16.4967 28.178 16.3058 28.1389 16.1283 28.0635C15.9507 27.9881 15.7901 27.8779 15.6558 27.7395L4.48283 16.2168Z" stroke="white" stroke-width="4"/>
</svg>