<svg xmlns="http://www.w3.org/2000/svg" width="25" height="25" viewBox="0 0 25 25" fill="none">
  <path d="M10.2567 19.8912C8.35166 19.8912 6.48943 19.3263 4.90547 18.268C3.32151 17.2096 2.08696 15.7053 1.35795 13.9453C0.628929 12.1853 0.438185 10.2486 0.809835 8.38024C1.18148 6.51183 2.09884 4.79559 3.44588 3.44854C4.79293 2.10149 6.50917 1.18414 8.37758 0.81249C10.246 0.44084 12.1826 0.631584 13.9427 1.3606C15.7027 2.08962 17.207 3.32416 18.2653 4.90813C19.3237 6.49209 19.8886 8.35432 19.8886 10.2593C19.8857 12.813 18.87 15.2612 17.0643 17.067C15.2586 18.8727 12.8103 19.8884 10.2567 19.8912ZM10.2567 3.03539C8.82792 3.03539 7.43124 3.45907 6.24327 4.25285C5.0553 5.04662 4.12939 6.17485 3.58263 7.49485C3.03587 8.81485 2.89281 10.2673 3.17155 11.6687C3.45028 13.07 4.1383 14.3571 5.14858 15.3674C6.15887 16.3777 7.44605 17.0657 8.84736 17.3445C10.2487 17.6232 11.7012 17.4801 13.0212 16.9334C14.3412 16.3866 15.4694 15.4607 16.2632 14.2727C17.0569 13.0848 17.4806 11.6881 17.4806 10.2593C17.4784 8.34411 16.7166 6.50797 15.3623 5.1537C14.008 3.79943 12.1719 3.03762 10.2567 3.03539Z" fill="#FFF3F3"/>
  <path d="M15.4254 15.4281C15.6512 15.2024 15.9574 15.0756 16.2767 15.0756C16.5959 15.0756 16.9021 15.2024 17.1279 15.4281L24.3518 22.652C24.5711 22.8791 24.6925 23.1832 24.6897 23.4989C24.687 23.8146 24.5604 24.1166 24.3371 24.3398C24.1139 24.563 23.8119 24.6896 23.4963 24.6924C23.1806 24.6951 22.8764 24.5738 22.6494 24.3545L15.4254 17.1305C15.1997 16.9047 15.0729 16.5985 15.0729 16.2793C15.0729 15.96 15.1997 15.6539 15.4254 15.4281Z" fill="#FFF3F3"/>
</svg>