<svg xmlns="http://www.w3.org/2000/svg" width="22" height="25" viewBox="0 0 22 25" fill="none">
  <path d="M20.7673 20.3388L20.7673 20.3396C20.8587 21.4623 20.4456 22.5738 19.6399 23.3928L19.4254 23.1817L19.6399 23.3928C18.8351 24.211 17.699 24.6764 16.523 24.6764L5.17089 24.6764C3.99489 24.6764 2.85883 24.2109 2.05402 23.3928C1.24845 22.5739 0.835155 21.4623 0.92648 20.3413L0.926549 20.3405L2.01182 7.46505C2.01183 7.4649 2.01184 7.46474 2.01185 7.46459C2.09341 6.46594 2.98305 5.7112 4.00759 5.7112H5.85451C5.97147 3.1887 8.18213 1.19864 10.847 1.19864C13.5118 1.19864 15.7225 3.1887 15.8394 5.7112H17.6864C18.711 5.7112 19.6003 6.46603 19.6823 7.46594L20.7673 20.3388ZM20.7673 20.3388L19.6823 7.46676L20.7673 20.3388ZM4.02766 7.65313H5.84964L5.84964 9.00236C5.84964 9.5554 6.32033 9.97332 6.86219 9.97332C7.40405 9.97332 7.87474 9.5554 7.87474 9.00236L7.87474 7.65313L13.8192 7.65313V9.00236C13.8192 9.5554 14.2899 9.97332 14.8318 9.97332C15.3736 9.97332 15.8443 9.5554 15.8443 9.00236V7.65313H17.6663L18.7485 20.4927C18.7486 20.4929 18.7486 20.4931 18.7486 20.4934C18.7956 21.0729 18.592 21.6277 18.1667 22.0602C17.7404 22.4934 17.1587 22.7345 16.523 22.7345L5.17093 22.7345C4.53524 22.7345 3.95355 22.4934 3.52725 22.0602C3.10176 21.6276 2.89833 21.0726 2.94534 20.4949C2.94535 20.4947 2.94536 20.4946 2.94537 20.4945L4.02766 7.65313ZM7.88322 5.7112C7.9982 4.29003 9.26825 3.14056 10.847 3.14056C12.4257 3.14056 13.6958 4.29007 13.8107 5.7112L7.88322 5.7112Z" fill="#3B3B3B" stroke="#3B3B3B" stroke-width="0.601995"/>
</svg>