<svg xmlns="http://www.w3.org/2000/svg" width="6" height="23" viewBox="0 0 6 23" fill="none">
  <path fill-rule="evenodd" clip-rule="evenodd" d="M2.96836 9.25937C4.29825 9.25937 5.37634 10.3375 5.37634 11.6673C5.37634 12.9972 4.29825 14.0753 2.96836 14.0753C1.63847 14.0753 0.560385 12.9972 0.560385 11.6673C0.560385 10.3375 1.63847 9.25937 2.96836 9.25937Z" fill="#F7EFEF"/>
  <path fill-rule="evenodd" clip-rule="evenodd" d="M2.96839 17.6873C4.29828 17.6873 5.37637 18.7653 5.37637 20.0952C5.37637 21.4251 4.29828 22.5032 2.96839 22.5032C1.6385 22.5032 0.560416 21.4251 0.560416 20.0952C0.560416 18.7653 1.6385 17.6873 2.96839 17.6873Z" fill="#F7EFEF"/>
  <path fill-rule="evenodd" clip-rule="evenodd" d="M2.96836 0.831421C4.29825 0.831421 5.37634 1.90951 5.37634 3.2394C5.37634 4.56929 4.29825 5.64738 2.96836 5.64738C1.63847 5.64738 0.560385 4.56929 0.560385 3.2394C0.560385 1.90951 1.63847 0.831421 2.96836 0.831421Z" fill="#F7EFEF"/>
</svg>